<?xml version="1.0" standalone="no"?>
<!DOCTYPE svg PUBLIC "-//W3C//DTD SVG 20010904//EN"
 "http://www.w3.org/TR/2001/REC-SVG-20010904/DTD/svg10.dtd">
<svg version="1.0" xmlns="http://www.w3.org/2000/svg"
 width="500.000000pt" height="500.000000pt" viewBox="0 0 500.000000 500.000000"
 preserveAspectRatio="xMidYMid meet">
<metadata>
Created by potrace 1.14, written by Peter Selinger 2001-2017
</metadata>
<g transform="translate(0.000000,500.000000) scale(0.100000,-0.100000)"
fill="#000000" stroke="none">
<path d="M2329 4995 c-2 -1 -40 -6 -83 -10 -43 -4 -88 -8 -100 -11 -11 -2 -38
-6 -61 -10 -226 -33 -492 -122 -734 -246 -124 -63 -312 -183 -387 -247 -17
-14 -51 -42 -75 -60 -87 -68 -296 -289 -380 -401 -150 -201 -267 -412 -346
-625 -42 -112 -50 -137 -83 -260 -93 -345 -102 -790 -24 -1150 77 -350 235
-695 456 -992 17 -24 29 -45 26 -49 -3 -3 -20 -6 -38 -6 -17 -1 -26 -4 -19 -8
6 -4 27 -6 46 -4 29 3 39 -2 65 -34 71 -84 291 -292 381 -360 227 -172 491
-312 734 -392 274 -89 460 -120 748 -125 234 -4 359 8 610 59 137 28 345 102
513 183 81 39 291 158 327 185 6 4 48 35 94 69 111 82 155 121 291 259 306
307 523 697 634 1135 25 99 29 119 47 225 27 159 32 514 10 684 -74 570 -321
1073 -720 1466 -202 199 -417 352 -666 474 -194 96 -458 184 -629 211 -21 4
-47 8 -56 10 -10 2 -38 6 -62 9 -23 4 -61 9 -83 12 -44 6 -431 15 -436 9z"/>
</g>
</svg>
